<mxfile host="Electron" modified="2024-06-10T15:26:22.901Z" agent="Mozilla/5.0 (Windows NT 10.0; Win64; x64) AppleWebKit/537.36 (KHTML, like Gecko) draw.io/24.1.0 Chrome/120.0.6099.109 Electron/28.1.0 Safari/537.36" etag="KSHQdoeWD77_mO0Sxfiv" version="24.1.0" type="device">
  <diagram name="Страница — 1" id="XDdJCOj5BgrIff6nonp3">
    <mxGraphModel dx="1282" dy="1260" grid="1" gridSize="10" guides="1" tooltips="1" connect="1" arrows="1" fold="1" page="1" pageScale="1" pageWidth="650" pageHeight="200" math="0" shadow="0">
      <root>
        <mxCell id="0" />
        <mxCell id="1" parent="0" />
        <mxCell id="ga1eZ9HjU4N5ib0OzfGF-12" value="&lt;h1 style=&quot;margin-top: 0px;&quot;&gt;Предприятие&lt;/h1&gt;" style="text;html=1;whiteSpace=wrap;overflow=hidden;rounded=0;" parent="1" vertex="1">
          <mxGeometry x="-610" y="30" width="180" height="120" as="geometry" />
        </mxCell>
        <mxCell id="ga1eZ9HjU4N5ib0OzfGF-14" value="ЗАКАЗЫ&lt;div&gt;кнопка показа меню в разных стилях&lt;br&gt;&lt;/div&gt;&lt;div&gt;List&amp;lt;заказ,&amp;nbsp;&lt;span style=&quot;background-color: initial;&quot;&gt;кнопка изменения статуса&lt;/span&gt;&lt;span style=&quot;background-color: initial;&quot;&gt;&amp;gt;&lt;/span&gt;&lt;/div&gt;&lt;div&gt;&lt;span style=&quot;background-color: initial;&quot;&gt;кнопка истории заказов&lt;/span&gt;&lt;/div&gt;&lt;div&gt;предприятия(закрыта\открыта)&lt;/div&gt;&lt;div&gt;связь с админом&lt;/div&gt;" style="rounded=0;whiteSpace=wrap;html=1;" parent="1" vertex="1">
          <mxGeometry x="-160" y="-70" width="180" height="180" as="geometry" />
        </mxCell>
        <mxCell id="ga1eZ9HjU4N5ib0OzfGF-15" value="ЗАКАЗ&lt;div&gt;*все поля заказа*&lt;/div&gt;&lt;div&gt;кнопка отмены заказа(с указанием причины)&lt;br&gt;&lt;div&gt;кнопка что закончил делать заказ&lt;/div&gt;&lt;/div&gt;&lt;div&gt;&amp;nbsp;инфо о курьере&amp;nbsp;&lt;/div&gt;" style="rounded=0;whiteSpace=wrap;html=1;" parent="1" vertex="1">
          <mxGeometry x="200" y="-90" width="180" height="180" as="geometry" />
        </mxCell>
        <mxCell id="ga1eZ9HjU4N5ib0OzfGF-24" value="AUTH&lt;div&gt;почта&lt;/div&gt;&lt;div&gt;пароль&lt;/div&gt;&lt;div&gt;кнопка auth&lt;br&gt;&lt;/div&gt;" style="rounded=0;whiteSpace=wrap;html=1;" parent="1" vertex="1">
          <mxGeometry x="-390" y="-10" width="180" height="180" as="geometry" />
        </mxCell>
        <mxCell id="cdRjryzrLn3YSCzt9iaT-1" value="работает через тот же сервер аунтефикации" style="rounded=0;whiteSpace=wrap;html=1;dashed=1;" parent="1" vertex="1">
          <mxGeometry x="-390" y="170" width="180" height="60" as="geometry" />
        </mxCell>
        <mxCell id="cdRjryzrLn3YSCzt9iaT-2" value="GET orders?store=&quot;&quot;&amp;amp;filter=&quot;&quot;?" style="rounded=0;whiteSpace=wrap;html=1;fillColor=#fff2cc;strokeColor=#d6b656;" parent="1" vertex="1">
          <mxGeometry x="-160" y="110" width="180" height="60" as="geometry" />
        </mxCell>
        <mxCell id="cdRjryzrLn3YSCzt9iaT-4" value="PUT store/status&lt;span style=&quot;color: rgba(0, 0, 0, 0); font-family: monospace; font-size: 0px; text-align: start; text-wrap: nowrap;&quot;&gt;%3CmxGraphModel%3E%3Croot%3E%3CmxCell%20id%3D%220%22%2F%3E%3CmxCell%20id%3D%221%22%20parent%3D%220%22%2F%3E%3CmxCell%20id%3D%222%22%20value%3D%22GET%20store%2Forders%3Ffilter%22%20style%3D%22rounded%3D0%3BwhiteSpace%3Dwrap%3Bhtml%3D1%3BfillColor%3D%23fff2cc%3BstrokeColor%3D%23d6b656%3B%22%20vertex%3D%221%22%20parent%3D%221%22%3E%3CmxGeometry%20x%3D%22-100%22%20y%3D%2220%22%20width%3D%22180%22%20height%3D%2260%22%20as%3D%22geometry%22%2F%3E%3C%2FmxCell%3E%3C%2Froot%3E%3C%2FmxGraphModel%3E&lt;/span&gt;" style="rounded=0;whiteSpace=wrap;html=1;fillColor=#fff2cc;strokeColor=#d6b656;" parent="1" vertex="1">
          <mxGeometry x="-160" y="170" width="180" height="60" as="geometry" />
        </mxCell>
        <mxCell id="cdRjryzrLn3YSCzt9iaT-5" value="GET chats/chat_id" style="rounded=0;whiteSpace=wrap;html=1;fillColor=#fff2cc;strokeColor=#d6b656;" parent="1" vertex="1">
          <mxGeometry x="-160" y="230" width="180" height="60" as="geometry" />
        </mxCell>
        <mxCell id="cdRjryzrLn3YSCzt9iaT-7" value="пока не делаем" style="rounded=0;whiteSpace=wrap;html=1;fillColor=#f8cecc;strokeColor=#b85450;" parent="1" vertex="1">
          <mxGeometry x="20" y="250" width="120" height="20" as="geometry" />
        </mxCell>
        <mxCell id="cdRjryzrLn3YSCzt9iaT-8" value="если будет время переделаем на graphQL" style="rounded=0;whiteSpace=wrap;html=1;fillColor=#f8cecc;strokeColor=#b85450;" parent="1" vertex="1">
          <mxGeometry x="20" y="110" width="120" height="60" as="geometry" />
        </mxCell>
        <mxCell id="cdRjryzrLn3YSCzt9iaT-12" value="PUT orders/order_id/status" style="rounded=0;whiteSpace=wrap;html=1;fillColor=#fff2cc;strokeColor=#d6b656;" parent="1" vertex="1">
          <mxGeometry x="207.5" y="90" width="165" height="60" as="geometry" />
        </mxCell>
        <mxCell id="cdRjryzrLn3YSCzt9iaT-14" value="GET orders/order_id" style="rounded=0;whiteSpace=wrap;html=1;fillColor=#fff2cc;strokeColor=#d6b656;" parent="1" vertex="1">
          <mxGeometry x="207.5" y="150" width="165" height="50" as="geometry" />
        </mxCell>
        <mxCell id="AZcYrhJ-Jv6pQ9vdr_tG-1" value="store" style="rounded=0;whiteSpace=wrap;html=1;fillColor=#fff2cc;strokeColor=#d6b656;" parent="1" vertex="1">
          <mxGeometry x="-390" y="-60" width="180" height="50" as="geometry" />
        </mxCell>
      </root>
    </mxGraphModel>
  </diagram>
</mxfile>
